<?xml version="1.0" encoding="UTF-8" standalone="no"?>
<!-- Created with Inkscape (http://www.inkscape.org/) -->

<svg
   width="651.58966mm"
   height="409.29871mm"
   viewBox="0 0 651.58966 409.29871"
   version="1.1"
   id="svg1"
   inkscape:version="1.4.2 (f4327f4, 2025-05-13)"
   sodipodi:docname="tunel_carpiano_definitivo_grande.svg"
   inkscape:export-filename="tunel_carpiano_actual5.png"
   inkscape:export-xdpi="96"
   inkscape:export-ydpi="96"
   xmlns:inkscape="http://www.inkscape.org/namespaces/inkscape"
   xmlns:sodipodi="http://sodipodi.sourceforge.net/DTD/sodipodi-0.dtd"
   xmlns:xlink="http://www.w3.org/1999/xlink"
   xmlns="http://www.w3.org/2000/svg"
   xmlns:svg="http://www.w3.org/2000/svg">
  <sodipodi:namedview
     id="namedview1"
     pagecolor="#ffffff"
     bordercolor="#999999"
     borderopacity="1"
     inkscape:showpageshadow="2"
     inkscape:pageopacity="0"
     inkscape:pagecheckerboard="0"
     inkscape:deskcolor="#d1d1d1"
     inkscape:document-units="mm"
     inkscape:zoom="0.4324125"
     inkscape:cx="1199.0865"
     inkscape:cy="727.31478"
     inkscape:window-width="1920"
     inkscape:window-height="1001"
     inkscape:window-x="-9"
     inkscape:window-y="-9"
     inkscape:window-maximized="1"
     inkscape:current-layer="layer1"
     showguides="false" />
  <defs
     id="defs1">
    <linearGradient
       id="linearGradient4"
       inkscape:collect="always">
      <stop
         style="stop-color:#ff9b9b;stop-opacity:1;"
         offset="0"
         id="stop4" />
      <stop
         style="stop-color:#ff9b9b;stop-opacity:0;"
         offset="1"
         id="stop5" />
    </linearGradient>
    <linearGradient
       id="linearGradient2"
       inkscape:collect="always">
      <stop
         style="stop-color:#ff9b9b;stop-opacity:1;"
         offset="0"
         id="stop2" />
      <stop
         style="stop-color:#ff9b9b;stop-opacity:0;"
         offset="1"
         id="stop3" />
    </linearGradient>
    <linearGradient
       id="linearGradient17"
       inkscape:collect="always">
      <stop
         style="stop-color:#ff0009;stop-opacity:1;"
         offset="0"
         id="stop17" />
      <stop
         style="stop-color:#f2000a;stop-opacity:0;"
         offset="1"
         id="stop18" />
    </linearGradient>
    <linearGradient
       id="linearGradient125"
       inkscape:collect="always">
      <stop
         style="stop-color:#ff9b9b;stop-opacity:1;"
         offset="0"
         id="stop125" />
      <stop
         style="stop-color:#ff9b9b;stop-opacity:0;"
         offset="1"
         id="stop126" />
    </linearGradient>
    <linearGradient
       id="linearGradient121"
       inkscape:collect="always">
      <stop
         style="stop-color:#ff9b9b;stop-opacity:1;"
         offset="0"
         id="stop121" />
      <stop
         style="stop-color:#ff9b9b;stop-opacity:0;"
         offset="1"
         id="stop122" />
    </linearGradient>
    <linearGradient
       id="linearGradient117"
       inkscape:collect="always">
      <stop
         style="stop-color:#ffffff;stop-opacity:1;"
         offset="0"
         id="stop117" />
      <stop
         style="stop-color:#ffffff;stop-opacity:0;"
         offset="1"
         id="stop118" />
    </linearGradient>
    <linearGradient
       id="linearGradient115"
       inkscape:collect="always">
      <stop
         style="stop-color:#ff9b9b;stop-opacity:1;"
         offset="0"
         id="stop115" />
      <stop
         style="stop-color:#ff9b9b;stop-opacity:0;"
         offset="1"
         id="stop116" />
    </linearGradient>
    <linearGradient
       id="linearGradient113"
       inkscape:collect="always">
      <stop
         style="stop-color:#ff9b9b;stop-opacity:1;"
         offset="0"
         id="stop113" />
      <stop
         style="stop-color:#ff9b9b;stop-opacity:0;"
         offset="1"
         id="stop114" />
    </linearGradient>
    <linearGradient
       id="linearGradient111"
       inkscape:collect="always">
      <stop
         style="stop-color:#ffffff;stop-opacity:1;"
         offset="0"
         id="stop111" />
      <stop
         style="stop-color:#ffffff;stop-opacity:0;"
         offset="1"
         id="stop112" />
    </linearGradient>
    <linearGradient
       id="linearGradient109"
       inkscape:collect="always">
      <stop
         style="stop-color:#ffffff;stop-opacity:1;"
         offset="0"
         id="stop109" />
      <stop
         style="stop-color:#ffffff;stop-opacity:0;"
         offset="1"
         id="stop110" />
    </linearGradient>
    <linearGradient
       id="linearGradient107"
       inkscape:collect="always">
      <stop
         style="stop-color:#ff9b9b;stop-opacity:1;"
         offset="0"
         id="stop107" />
      <stop
         style="stop-color:#ff9b9b;stop-opacity:0;"
         offset="1"
         id="stop108" />
    </linearGradient>
    <linearGradient
       id="linearGradient73"
       inkscape:collect="always">
      <stop
         style="stop-color:#ffffff;stop-opacity:1;"
         offset="0"
         id="stop73" />
      <stop
         style="stop-color:#ffffff;stop-opacity:0;"
         offset="1"
         id="stop74" />
    </linearGradient>
    <linearGradient
       id="linearGradient71"
       inkscape:collect="always">
      <stop
         style="stop-color:#ff9b9b;stop-opacity:1;"
         offset="0"
         id="stop71" />
      <stop
         style="stop-color:#ff9b9b;stop-opacity:0;"
         offset="1"
         id="stop72" />
    </linearGradient>
    <linearGradient
       id="linearGradient69"
       inkscape:collect="always">
      <stop
         style="stop-color:#ff9b9b;stop-opacity:1;"
         offset="0"
         id="stop69" />
      <stop
         style="stop-color:#ff9b9b;stop-opacity:0;"
         offset="1"
         id="stop70" />
    </linearGradient>
    <linearGradient
       inkscape:collect="always"
       xlink:href="#linearGradient69"
       id="linearGradient70"
       x1="277.53796"
       y1="168.21698"
       x2="299.34283"
       y2="125.51942"
       gradientUnits="userSpaceOnUse" />
    <linearGradient
       inkscape:collect="always"
       xlink:href="#linearGradient71"
       id="linearGradient72"
       x1="329.59866"
       y1="296.31018"
       x2="399.2901"
       y2="175.4881"
       gradientUnits="userSpaceOnUse" />
    <linearGradient
       inkscape:collect="always"
       xlink:href="#linearGradient73"
       id="linearGradient74"
       x1="494.71539"
       y1="133.1254"
       x2="463.89856"
       y2="166.73409"
       gradientUnits="userSpaceOnUse"
       gradientTransform="translate(-6.0996503,-0.55451367)" />
    <linearGradient
       inkscape:collect="always"
       xlink:href="#linearGradient107"
       id="linearGradient108"
       x1="243.89128"
       y1="424.18747"
       x2="246.62605"
       y2="373.92874"
       gradientUnits="userSpaceOnUse"
       gradientTransform="translate(0.19605019,0.20794263)" />
    <linearGradient
       inkscape:collect="always"
       xlink:href="#linearGradient109"
       id="linearGradient110"
       x1="243.78078"
       y1="347.18976"
       x2="247.26918"
       y2="365.46585"
       gradientUnits="userSpaceOnUse" />
    <linearGradient
       inkscape:collect="always"
       xlink:href="#linearGradient111"
       id="linearGradient112"
       x1="199.187"
       y1="202.71588"
       x2="207.02899"
       y2="249.37584"
       gradientUnits="userSpaceOnUse" />
    <linearGradient
       inkscape:collect="always"
       xlink:href="#linearGradient113"
       id="linearGradient114"
       x1="195.08748"
       y1="286.96359"
       x2="188.66388"
       y2="249.47212"
       gradientUnits="userSpaceOnUse" />
    <linearGradient
       inkscape:collect="always"
       xlink:href="#linearGradient115"
       id="linearGradient116"
       x1="235.94557"
       y1="375.50201"
       x2="232.04558"
       y2="339.7359"
       gradientUnits="userSpaceOnUse" />
    <linearGradient
       inkscape:collect="always"
       xlink:href="#linearGradient117"
       id="linearGradient118"
       x1="209.88342"
       y1="307.31723"
       x2="214.40088"
       y2="327.88541"
       gradientUnits="userSpaceOnUse"
       gradientTransform="translate(-1.0899062,0.89869456)" />
    <linearGradient
       inkscape:collect="always"
       xlink:href="#linearGradient121"
       id="linearGradient122"
       x1="227.4861"
       y1="339.83188"
       x2="216.53059"
       y2="301.86328"
       gradientUnits="userSpaceOnUse" />
    <linearGradient
       inkscape:collect="always"
       xlink:href="#linearGradient125"
       id="linearGradient126"
       x1="423.81262"
       y1="451.3551"
       x2="378.98776"
       y2="339.6113"
       gradientUnits="userSpaceOnUse" />
    <radialGradient
       inkscape:collect="always"
       xlink:href="#linearGradient17"
       id="radialGradient18"
       cx="495.18073"
       cy="264.78027"
       fx="495.18073"
       fy="264.78027"
       r="73.75032"
       gradientTransform="matrix(0.48423134,-0.07682973,0.11201034,0.70596287,245.97235,116.20352)"
       gradientUnits="userSpaceOnUse" />
    <linearGradient
       inkscape:collect="always"
       xlink:href="#linearGradient2"
       id="linearGradient3"
       x1="90.37674"
       y1="381.91064"
       x2="92.693756"
       y2="349.35168"
       gradientUnits="userSpaceOnUse" />
    <linearGradient
       inkscape:collect="always"
       xlink:href="#linearGradient4"
       id="linearGradient5"
       x1="54.671772"
       y1="374.65204"
       x2="66.974487"
       y2="313.68042"
       gradientUnits="userSpaceOnUse" />
  </defs>
  <g
     inkscape:label="Layer 1"
     inkscape:groupmode="layer"
     id="layer1"
     transform="translate(-36.343647,-51.919498)">
    <rect
       style="fill:#fff7f1;fill-opacity:1;stroke:#000000;stroke-width:0.457535;stroke-linecap:round;stroke-linejoin:round;stroke-dasharray:none"
       id="rect2-2"
       width="83.113655"
       height="90.03627"
       x="473.11539"
       y="222.48703" />
    <path
       id="path7-1"
       style="fill:#fff7f1;fill-opacity:1;stroke:none;stroke-width:1.167;stroke-dasharray:none;stroke-opacity:1"
       d="m 554.22104,261.54633 c -2.77362,30.1731 -4.90457,53.5325 -13.19246,68.60358 -6.16101,11.20345 -14.31147,17.99367 -21.24388,22.82585 -10.18537,7.09963 -18.39935,9.28323 -19.20685,9.37428 -16.54186,1.86517 -146.91311,36.68505 -171.44241,39.39082 -52.1737,-5.65155 -91.9601,8.20402 -141.6951,-9.47906 -18.97534,-5.43926 -47.03113,-10.55851 -57.05629,-13.6548 -11.68745,-3.6097 -10.81026,-11.35877 -12.46761,-11.373 -25.280147,-0.21706 -38.885511,-1.19851 -46.40153,-8.03706 -7.158286,-6.51306 -4.89447,-18.14908 -4.723076,-19.00151 0.365689,-1.81875 -8.132917,1.94744 -13.917407,-3.3953 -4.907263,-4.53251 -6.667499,-14.93125 -1.466242,-26.70462 3.051076,-6.9063 22.448407,-6.6082 41.374512,-6.25159 16.510703,0.3111 32.733053,0.40906 36.523033,-0.86207 37.7634,-12.66556 79.24341,-14.8344 85.76911,-18.35225 39.5081,-21.29802 95.2778,-28.10838 80.3369,-28.35748 -7.75636,-0.12932 -16.60815,0.87408 -26.40928,2.24561 -14.74896,2.0639 -69.31314,15.7975 -87.86395,16.92311 -23.5458,1.4287 -24.01718,0.7392 -45.8229,0.52146 -26.01248,-0.25974 -68.997161,14.58247 -76.231481,-14.43449 -4.25489,-17.06643 16.19662,-21.98133 38.35005,-23.5193 12.570071,-0.87265 23.791531,-0.87643 35.151571,-1.96434 6.39212,-0.61215 17.14036,-4.86186 27.06898,-7.17708 17.97671,-4.19192 36.66361,-5.88602 39.51501,-6.25993 24.8832,-3.26303 26.20722,-8.89489 50.4203,-12.8511 24.18785,-3.95209 55.61007,-9.00756 76.57207,-14.69832 15.39656,-4.17986 25.16242,-8.36622 22.21053,-14.41246 -1.51443,-3.10194 -1.98639,-5.75284 -2.99292,-7.30633 -3.79136,-5.85159 -6.60813,-3.26525 -22.06518,-16.58576 -22.47709,-19.37021 -69.0739,-13.37719 -82.5137,-41.83791 -22.393,-47.420534 23.6749,-35.306344 40.3328,-26.511474 25.7542,13.597454 46.585,17.185254 52.5244,17.461344 29.8641,1.3882 37.9587,28.67631 81.4058,26.93219 42.8833,-1.72149 86.58225,28.07004 113.46795,62.40445 15.4133,19.68359 27.89534,42.34543 25.68925,66.34454 z m -290.83562,39.09708 c 0,0 3.09452,1.01267 4.6555,1.47418 2.66117,0.78678 7.24316,-3.08677 7.24316,-3.08677"
       sodipodi:nodetypes="ssssssssssssssssssssssssssssssssssscsc" />
    <path
       style="fill:url(#linearGradient5);fill-opacity:1;stroke:none;stroke-width:0.499999;stroke-linecap:round;stroke-linejoin:round;stroke-opacity:1"
       d="m 48.319406,318.41915 c 0,0 -0.28711,9.9649 1.869443,13.10173 2.156552,3.13679 1.568394,5.48941 6.077556,6.6657 3.448194,0.89952 8.008014,2.41297 10.733072,1.32127 0.83846,-0.3359 1.373391,-1.28196 1.81414,-2.10547 1.390642,-2.59831 6.846754,-3.80829 10.978809,-4.50915 3.964992,-0.67252 14.040913,-1.45046 23.014304,-1.19836 7.45659,0.20948 14.23556,1.53193 15.34677,0.53335 2.85628,-2.56677 32.89966,-3.07296 24.30417,-4.36017 -7.87803,-1.17976 -82.730029,-13.4388 -90.811063,-15.35858 -5.646149,-1.34133 -3.327201,5.90968 -3.327201,5.90968 z"
       id="path3"
       sodipodi:nodetypes="csssssssssc" />
    <path
       id="rect64"
       style="fill:#fff7f1;fill-opacity:1;stroke-width:0.307505"
       d="m 521.88666,193.01164 59.53341,-11.53806 81.49836,-11.52585 0.80726,140.22846 -38.05395,5.25068 -22.95874,3.02942 -32.78816,4.16718 -27.68937,2.33887 0.16094,-58.6562 z"
       sodipodi:nodetypes="cccccccccc" />
    <path
       style="fill:url(#linearGradient72);stroke:none;stroke-width:0.280026;stroke-linecap:round;stroke-linejoin:bevel;stroke-miterlimit:4.4;stroke-opacity:1"
       d="m 332.54236,193.16434 c 0,0 6.43887,10.30662 14.41118,21.48156 8.10745,11.36436 17.23879,22.95101 19.12837,24.98632 0.47103,0.50736 16.22865,11.12912 21.20608,12.27227 1.87723,0.43114 7.93992,2.63607 16.53678,2.98509 4.4636,0.18121 10.0573,-0.69655 15.15492,-1.39755 24.23845,-3.33314 56.13076,-21.28727 57.33936,-28.558 4.99184,-30.02991 18.19653,-61.85927 6.51272,-71.21972 -17.01154,-13.62873 -70.75408,-24.24224 -86.82982,-17.72883 -15.47777,6.27113 -8.06644,9.31768 -21.7655,18.57425 -2.21088,1.49391 -10.95192,4.65658 -13.2836,7.29155 -4.57105,5.16563 -8.69436,6.9036 -12.39743,11.03938 -5.63539,6.2939 -3.69996,-9.83605 0.27612,8.67736 0.65314,3.04115 -1.65891,5.14291 -4.46142,6.69736 -5.1183,2.83892 -11.82776,4.89896 -11.82776,4.89896 z"
       id="path19"
       sodipodi:nodetypes="csssssssssssssc" />
    <path
       style="fill:url(#linearGradient126);fill-opacity:1;stroke:none;stroke-width:0.25;stroke-linecap:round;stroke-linejoin:bevel;stroke-miterlimit:4.4;stroke-opacity:1"
       d="m 663.50241,309.68011 c -0.57778,1.59783 -7.85406,1.58201 -18.51495,3.2365 -31.16862,4.83713 -90.30891,12.70541 -101.27665,12.2415 -0.85018,-0.036 -6.09164,11.98251 -11.79366,17.30028 -2.81786,2.62797 -11.1433,11.44961 -24.17957,17.322 -10.26587,4.62442 -22.88175,8.32707 -35.09846,11.90445 -11.98045,3.5082 -23.57117,6.91351 -32.77387,9.18372 -44.20003,10.90366 -108.19082,26.05251 -113.411,19.67947 -11.59008,-14.14971 -71.98039,-80.22695 25.84063,-82.16655 60.78248,-1.2052 43.42578,-84.97732 176.2323,-54.31632 29.31506,6.76796 94.91628,-109.26582 134.80102,-33.17281 0.47875,0.91337 0.17384,3.12101 0.14545,6.15299 -0.0503,5.3652 -0.15679,13.02344 -0.1053,18.60206 0.18465,20.00495 -0.67558,49.10545 0.13406,54.03271 z"
       id="path55-0"
       sodipodi:nodetypes="cssssssssssssc" />
    <path
       style="fill:url(#radialGradient18);stroke:none;stroke-width:0.230053;stroke-opacity:1"
       id="path15"
       sodipodi:type="arc"
       sodipodi:cx="515.41235"
       sodipodi:cy="265.08411"
       sodipodi:rx="39.39637"
       sodipodi:ry="36.02058"
       sodipodi:start="0"
       sodipodi:end="6.1959396"
       sodipodi:arc-type="arc"
       d="m 554.80872,265.08411 a 39.39637,36.02058 0 0 1 -38.53714,36.01201 39.39637,36.02058 0 0 1 -40.21812,-34.44119 39.39637,36.02058 0 0 1 36.78286,-37.51432 39.39637,36.02058 0 0 1 41.82256,32.80484"
       sodipodi:open="true" />
    <path
       style="fill:url(#linearGradient70);stroke:none;stroke-width:0.25;stroke-linecap:round;stroke-linejoin:bevel;stroke-miterlimit:4.4;stroke-opacity:1"
       d="m 235.26022,89.790986 c 0,0 19.55215,-1.734504 29.04668,-2.746103 11.08965,-1.181552 10.07651,15.038897 22.08115,21.700117 12.46425,6.91625 37.8587,4.36031 44.36662,7.3989 10.51618,4.91009 10.42358,13.50152 18.29247,20.53265 5.32353,4.75677 19.03258,13.99813 18.61334,19.55478 -0.0532,0.70497 -5.32253,4.44567 -5.66659,4.72844 -0.34826,0.28623 -1.40243,1.30717 -2.97414,2.90516 -1.72076,1.74953 -4.59458,1.41976 -6.95448,3.78176 -3.30162,3.30455 -5.24005,6.88137 -5.24005,6.88137 -1.84711,-3.25031 -16.99208,-11.47706 -19.58671,-14.22335 -4.75833,-5.03646 -12.91266,-10.24507 -16.83365,-11.42137 -3.92099,-1.1763 -42.20819,-11.25607 -48.08971,-14.39287 -5.88151,-3.13681 -9.01831,-2.3526 -14.89982,-10.19461 -5.8815,-7.84201 -9.33905,-12.80069 -10.90745,-19.85849 -1.5684,-7.057812 -1.24766,-14.646344 -1.24766,-14.646344 z"
       id="path18"
       sodipodi:nodetypes="csssssssssssssscc" />
    <path
       style="fill:url(#linearGradient114);stroke:none;stroke-width:0.25;stroke-linecap:round;stroke-linejoin:bevel;stroke-miterlimit:4.4;stroke-opacity:1"
       d="m 145.55984,276.42505 c -34.57211,-0.7842 18.02169,1.9408 28.55745,0.27725 10.53576,-1.66354 26.06214,-3.60433 32.7163,-4.99062 6.65417,-1.38628 26.89392,-1.66354 33.54808,-3.32708 6.65417,-1.66354 24.79072,-3.86188 31.99937,-4.97091 7.20868,-1.10903 26.69163,-4.09386 24.83827,-4.73307 0,0 -2.63982,-6.16729 -5.19849,-13.85407 -4.1288,-12.40381 -9.38035,-28.61083 -12.97506,-28.0973 -5.8224,0.83177 -54.0593,2.86025 -71.52648,4.24654 -17.46718,1.3863 -60.92784,14.18936 -71.18634,14.18936 -6.19853,0 -60.044404,19.07489 -69.706391,21.31674 -21.604838,5.01294 6.921362,21.82245 6.921362,21.82245 l 20.159624,1.78606 27.007265,-2.76631 z"
       id="path53"
       sodipodi:nodetypes="csssssssssscccc" />
    <path
       style="fill:url(#linearGradient116);fill-opacity:1;stroke:none;stroke-width:0.25;stroke-linecap:round;stroke-linejoin:bevel;stroke-miterlimit:4.4;stroke-opacity:1"
       d="m 149.16418,350.7299 c 0,0 64.78241,-13.75949 74.85933,-10.81303 12.99609,3.80003 55.17411,-9.70397 63.76907,-7.76318 4.15447,0.9381 14.20391,-5.91547 14.31339,4.8666 0.023,2.26164 0.15663,12.08579 0.35386,13.95949 0.55452,5.26788 -1.08167,1.41365 -21.04416,3.35444 -19.96248,1.9408 -25.21181,5.38716 -31.43818,8.16915 -6.77444,3.02688 -7.83458,4.08894 -9.43789,3.72545 -1.48076,-0.3357 -3.41359,-1.9267 -11.00141,-3.39101 -15.53642,-2.99825 -11.21538,-0.81379 -19.38812,-1.27129 -10.11397,-0.56617 -19.97335,-0.26122 -21.18342,-0.69313 -2.51871,-0.89902 -39.80247,-10.14349 -39.80247,-10.14349 z"
       id="path56"
       sodipodi:nodetypes="cssssssssssc" />
    <path
       style="fill:url(#linearGradient108);stroke:none;stroke-width:0.25;stroke-linecap:round;stroke-linejoin:bevel;stroke-miterlimit:4.4;stroke-opacity:1"
       d="m 128.68081,379.06955 c 13.86284,2.21806 53.39572,11.51601 61.71342,14.28858 8.31771,2.77257 17.74444,6.65416 33.82534,7.76319 6.67215,0.46015 18.29521,1.21222 31.3825,0.97364 18.45506,-0.33643 39.60796,-1.78739 52.03578,-1.36573 2.22953,0.0757 19.68113,1.24508 21.06886,1.12301 0.25022,-0.022 0.14067,-0.15256 -0.27473,-0.29127 -0.20175,-0.0674 -0.62944,-0.16995 -0.93902,-0.29825 -0.37912,-0.15712 -0.71104,-0.40805 -0.71104,-0.40805 -0.13624,0.14858 -2.16812,-2.69646 -4.65731,-5.50528 -3.99272,-4.50541 -7.59284,-9.92758 -7.95181,-10.25267 -0.38817,-0.35154 -16.01802,-25.39902 -20.96002,-23.8101 -30.10881,9.68039 -34.89317,17.86381 -56.50272,13.43615 -14.07807,-2.88451 -34.28768,-2.12498 -48.62413,-11.22655 -24.04866,-15.26741 -61.39751,-4.76922 -69.00004,-3.35321 -2.81795,0.52486 -1.79587,6.45661 1.28596,11.21317 2.48358,3.8332 6.93661,6.73309 6.93661,6.73309 z"
       id="path55"
       sodipodi:nodetypes="cssssssssssssssscc" />
    <path
       style="fill:url(#linearGradient112);stroke:none;stroke-width:0.4;stroke-dasharray:none;stroke-opacity:1"
       d="m 96.456692,239.57333 20.389218,12.93931 87.83049,-10.58671 72.14647,-13.72351 28.62332,-4.3131 27.2837,-30.49914 c 0,0 -80.60935,15.59932 -90.80396,17.95192 -10.19461,2.3526 -19.60502,6.27361 -42.34684,11.76301 -21.73913,5.24738 -47.05205,7.05781 -54.89405,10.58671 -7.84201,3.5289 -48.228348,5.88151 -48.228348,5.88151 z"
       id="path65"
       sodipodi:nodetypes="ccccccsssc" />
    <path
       style="fill:url(#linearGradient118);fill-opacity:1;stroke:none;stroke-width:0.4;stroke-dasharray:none;stroke-opacity:1"
       d="m 113.51277,332.73687 c 0,0 24.02573,10.01949 32.89795,10.01949 8.87222,0 29.94374,-2.77257 46.02464,-2.77257 16.08089,0 24.95311,-3.32708 31.88453,-3.88159 6.93142,-0.55452 8.31771,-2.77257 27.72569,-9.14948 19.40796,-6.37691 20.51699,-6.37691 31.05275,-8.59497 10.53576,-2.21805 24.12135,-0.27725 13.58559,-4.4361 -10.53576,-4.15886 -0.27726,-7.20868 -12.47656,-5.26789 -12.1993,1.9408 -31.33001,4.71338 -44.63834,8.59497 -13.30833,3.8816 -3.32708,6.65416 -18.57621,7.20868 -15.24913,0.55451 -17.18992,0 -33.54808,2.49531 -16.35815,2.49531 -19.40797,3.32708 -33.27082,6.09965 -13.86284,2.77257 -15.34144,2.27982 -24.23278,1.38113 -14.06573,-1.42168 -16.42836,-1.69663 -16.42836,-1.69663 z"
       id="path66"
       sodipodi:nodetypes="cssssssssssssc" />
    <path
       style="fill:url(#linearGradient110);stroke:none;stroke-width:0.385325;stroke-dasharray:none;stroke-opacity:1"
       d="m 191.60359,361.12719 c 12.47656,3.34473 21.32966,3.43587 36.30152,7.80974 14.97187,4.37387 11.36754,8.23316 25.78489,4.37387 14.41734,-3.8593 8.3177,-2.57287 26.61664,-6.94673 18.29896,-4.37387 30.49826,0.25728 24.67587,-5.6603 -5.8224,-5.91759 -0.35374,-9.58906 -17.26641,-7.27348 -16.91267,2.31557 -19.71392,1.46722 -30.24967,5.5838 -10.53576,4.11658 -9.32157,5.54899 -15.97573,6.83541 -0.25969,0.0502 -0.50418,0.0945 -0.7347,0.13332 -5.67624,0.95502 -7.09119,-2.97958 -14.28498,-3.72131 -7.48593,-0.77186 -34.86743,-1.13432 -34.86743,-1.13432 z"
       id="path67"
       sodipodi:nodetypes="csssssssssc" />
    <path
       style="fill:none;fill-opacity:1;stroke:#000000;stroke-width:1.167;stroke-dasharray:none;stroke-opacity:1"
       d="m 347.31564,174.46884 c 0,0 3.75729,-6.06814 6.31811,-7.51284 1.77911,-1.00369 5.26758,-3.00236 5.26758,-3.00236"
       id="path12-8-1"
       sodipodi:nodetypes="csc" />
    <path
       style="fill:url(#linearGradient74);stroke:none;stroke-width:0.4;stroke-dasharray:none;stroke-opacity:1"
       d="m 514.95368,208.32097 c -14.59598,-18.99562 -46.88175,-22.92139 -69.96296,-35.26162 -48.72375,-26.04984 -52.43626,-39.46748 -57.61956,-40.15859 -8.3177,-1.10903 60.33611,4.212 47.37726,2.08927 -11.7875,-1.93086 32.10262,2.048 56.75934,23.49089 17.9357,15.59791 15.88534,12.14312 28.49307,26.91652 -1.77811,-0.0408 -22.91708,-22.35538 5.50332,5.83921 2.03452,2.01835 1.15328,2.05149 0.15637,2.43529 -1.1597,0.44647 -2.7243,1.08089 -3.90555,1.40383 -101.32326,27.7005 -6.82358,24.28055 -7.3781,12.08125 -0.55452,-12.1993 -5.49516,4.36983 -19.358,1.59726"
       id="path64"
       sodipodi:nodetypes="csssssssssc" />
    <path
       id="rect9"
       style="fill:none;stroke:#000000;stroke-width:1.167"
       d="m 525.88767,192.9243 c 0.45453,-0.43982 1.6093,-0.79044 1.89036,-0.84746 78.38033,-15.89898 102.99066,-15.95426 135.31297,-22.17428 l 0.28444,140.51541 c -72.32655,9.45759 -99.49147,14.37566 -119.49758,14.92371"
       sodipodi:nodetypes="csccc" />
    <path
       style="fill:#ff7b7b;fill-opacity:0;stroke:none;stroke-width:0.25;stroke-linecap:round;stroke-linejoin:bevel;stroke-miterlimit:4.4;stroke-opacity:1"
       d="m 541.23031,310.52829 c 0,3.39121 0.40657,2.15559 -12.8569,5.5718 -27.16525,6.99682 -11.82871,2.07328 -29.58239,4.61127 -7.61904,1.08918 -9.25098,2.59922 -26.07898,-0.002 -6.37457,-0.98551 -4.20416,-4.37181 -4.85607,-7.947 -0.87135,-4.77865 0.13863,-8.45753 2.17457,-12.81124 1.52794,-3.2674 5.98418,-3.17278 10.72195,-0.8039 4.99063,2.49532 18.37779,-3.69539 22.67526,-3.83402 4.29749,-0.13862 2.39263,-1.88515 7.56545,-0.87934 4.99062,0.97039 8.86417,7.99702 12.13203,6.34904 6.34209,-3.19831 2.31558,-0.0726 5.26788,-2.35669 3.40828,-2.63683 3.46571,-1.9408 5.4065,0.27726 6.10641,5.86256 7.4307,10.81794 7.4307,11.82522 z"
       id="path51-6"
       sodipodi:nodetypes="ssssssssssssss" />
    <path
       style="fill:url(#linearGradient122);stroke:none;stroke-width:0.25;stroke-linecap:round;stroke-linejoin:bevel;stroke-miterlimit:4.4;stroke-opacity:1"
       d="m 181.55747,291.52609 c 6.28033,-0.95688 49.71668,-3.40123 59.08424,-6.14889 10.5983,-3.10867 39.29191,-14.3947 44.06243,-14.9255 5.32487,-0.59248 7.27248,11.61857 9.04359,22.17695 1.14167,6.806 3.0951,12.98851 2.87776,14.40124 -0.55451,3.60434 -6.18729,-0.18066 -26.04005,2.67165 -16.23753,2.3329 -15.17245,3.39548 -25.25246,6.91173 -8.79448,3.06782 -13.38525,5.60215 -20.34026,6.82178 -3.17072,0.55601 -6.80068,0.42107 -11.601,0.67569 -15.48933,0.82159 -20.15124,1.45789 -27.32541,2.16232 -8.47102,0.83177 -44.01172,9.42884 -44.01172,9.42884 -3.71628,-0.55919 -10.44664,-1.14206 -16.94982,-1.87885 -8.80839,-0.99796 -17.12671,-1.97251 -16.88223,-4.84997 1.2059,-14.19334 55.09533,-34.66798 73.33493,-37.44699 z"
       id="path56-9"
       sodipodi:nodetypes="sssssssssscsss" />
    <path
       style="fill:none;fill-opacity:1;stroke:#000000;stroke-width:1.167;stroke-dasharray:none;stroke-opacity:1"
       d="m 66.696473,343.21746 c -0.01046,-0.20422 0.06776,-0.83779 0.07227,-1.03543 0.369713,-16.2158 50.682397,-10.16393 71.696587,-6.68085 4.61298,0.7646 23.69142,-4.84797 39.77571,-7.56669 18.98211,-3.20854 38.01439,-3.17369 45.42209,-4.04852 14.70375,-1.73648 39.51565,-19.74923 70.07657,-14.94038"
       id="path10"
       sodipodi:nodetypes="cssssc" />
    <path
       style="fill:none;fill-opacity:1;stroke:#000000;stroke-width:1.167;stroke-dasharray:none;stroke-opacity:1"
       d="m 143.64227,336.84538 c 0,0 1.71669,1.25018 2.46329,5.3892 0.56749,3.14605 0.89327,6.55715 0.89327,6.55715"
       id="path13-2-6-3-2"
       sodipodi:nodetypes="csc" />
    <path
       style="fill:url(#linearGradient3);stroke:none;stroke-width:0.499999;stroke-linecap:round;stroke-linejoin:round;stroke-opacity:1"
       d="m 66.332237,348.63635 1.407914,6.51033 6.47671,6.50395 c 0,0 18.395313,5.60412 19.767664,5.60412 1.372351,0 5.412921,0.14331 17.764085,0.14331 12.35116,0 5.68545,2.15654 5.68545,-2.3526 0,-2.26176 0.57958,-6.19921 2.51022,-8.46703 1.91837,-2.25342 5.18474,-2.84256 6.16187,-3.42883 1.96052,-1.17629 -13.80303,-10.49566 -28.506791,-12.06406 -14.703767,-1.56842 -31.267122,7.55081 -31.267122,7.55081 z"
       id="path2"
       sodipodi:nodetypes="cccssssssc" />
    <path
       style="fill:none;fill-opacity:1;stroke:#000000;stroke-width:1.167;stroke-dasharray:none;stroke-opacity:1"
       d="m 118.39643,367.71859 c 0,0 -4.78837,-10.648 7.67766,-14.72909 12.59958,-4.12482 44.93579,0.11969 62.53267,7.97286 5.11913,2.28457 33.15216,-2.99057 51.99122,5.69133 1.31703,0.60695 23.30187,-16.35422 61.54294,-13.19936"
       id="path11"
       sodipodi:nodetypes="csssc" />
    <path
       style="fill:none;fill-opacity:1;stroke:#000000;stroke-width:1.167;stroke-dasharray:none;stroke-opacity:1"
       d="m 274.56194,138.29794 c 0,0 -1.28682,-7.50043 1.76546,-13.91236 4.92784,-10.35195 8.29251,-14.25 8.29251,-14.25"
       id="path12"
       sodipodi:nodetypes="csc" />
    <path
       style="fill:none;fill-opacity:1;stroke:#000000;stroke-width:1.167;stroke-dasharray:none;stroke-opacity:1"
       d="m 292.3902,203.7958 c 0,0 -4.16151,14.20661 -4.13652,21.60192 0.0228,6.75265 1.7519,13.75237 3.5496,19.21758 1.96037,5.95971 4.00234,10.09467 4.00234,10.09467"
       id="path13"
       sodipodi:nodetypes="cssc" />
    <path
       style="fill:none;fill-opacity:1;stroke:#000000;stroke-width:1.167;stroke-dasharray:none;stroke-opacity:1"
       d="m 209.26539,221.6565 c 0,0 -2.81395,12.3305 -1.56256,19.61921 2.19335,12.77522 7.76762,21.05922 7.76762,21.05922"
       id="path13-2"
       sodipodi:nodetypes="csc" />
    <path
       style="fill:none;fill-opacity:1;stroke:#000000;stroke-width:1.167;stroke-dasharray:none;stroke-opacity:1"
       d="m 211.01068,221.02213 c 0,0 3.81237,11.47479 4.74348,18.81129 1.632,12.85899 0.27558,21.25266 0.27558,21.25266"
       id="path13-2-2"
       sodipodi:nodetypes="csc" />
    <path
       style="fill:none;fill-opacity:1;stroke:#000000;stroke-width:1.167;stroke-dasharray:none;stroke-opacity:1"
       d="m 133.2876,237.36028 c 0,0 3.7425,11.81516 4.99389,19.10387 2.19335,12.77522 2.09075,19.61872 2.09075,19.61872"
       id="path13-2-6"
       sodipodi:nodetypes="csc" />
    <path
       style="fill:none;fill-opacity:1;stroke:#000000;stroke-width:1.175;stroke-dasharray:none;stroke-opacity:1"
       d="m 206.09764,286.9667 c 0,0 -1.17509,12.61451 0.16599,19.50932 2.35056,12.0848 11.5249,17.98167 11.5249,17.98167"
       id="path13-2-1"
       sodipodi:nodetypes="csc" />
    <path
       style="fill:none;fill-opacity:1;stroke:#000000;stroke-width:1.167;stroke-dasharray:none;stroke-opacity:1"
       d="m 215.21999,284.77843 c 0,0 6.67698,10.15882 7.60809,17.49532 1.632,12.85899 0.19378,21.99206 0.19378,21.99206"
       id="path13-2-2-8"
       sodipodi:nodetypes="csc" />
    <path
       style="fill:none;fill-opacity:1;stroke:#000000;stroke-width:1.24979;stroke-dasharray:none;stroke-opacity:1"
       d="m 332.17666,192.8083 c 0,0 14.55647,24.10547 30.94617,42.70392 22.22346,25.21838 51.15736,18.64603 51.15736,18.64603"
       id="path13-5"
       sodipodi:nodetypes="csc" />
    <path
       style="fill:none;fill-opacity:1;stroke:#000000;stroke-width:1.167;stroke-dasharray:none;stroke-opacity:1"
       d="m 327.48166,195.57437 c -3.90779,51.66407 26.33602,70.2372 49.95153,96.30038"
       id="path13-5-3"
       sodipodi:nodetypes="cc" />
    <path
       style="fill:none;fill-opacity:1;stroke:#000000;stroke-width:1.167;stroke-dasharray:none;stroke-opacity:1"
       d="m 306.29916,258.02082 c 0,0 42.51055,29.7225 57.64776,50.22659 10.80702,14.63865 12.83677,34.95657 19.46624,53.10415 3.73219,10.21655 15.15123,24.87503 15.15123,24.87503"
       id="path14"
       sodipodi:nodetypes="cssc" />
    <path
       style="fill:none;fill-opacity:1;stroke:#000000;stroke-width:1.167;stroke-dasharray:none;stroke-opacity:1"
       d="m 127.72247,305.25318 c 0,0 4.4174,9.74907 6.06674,16.95816 1.38871,6.0699 0.53315,11.97403 0.53315,11.97403"
       id="path13-2-6-3"
       sodipodi:nodetypes="csc" />
    <path
       style="fill:none;fill-opacity:1;stroke:#000000;stroke-width:1.175;stroke-dasharray:none;stroke-opacity:1"
       d="m 222.42142,323.92703 c 0,0 -3.84126,5.59258 -2.50018,12.48739 2.35056,12.0848 11.89968,15.9155 11.89968,15.9155"
       id="path13-2-1-7"
       sodipodi:nodetypes="csc" />
    <path
       style="fill:none;fill-opacity:1;stroke:#000000;stroke-width:1.175;stroke-dasharray:none;stroke-opacity:1"
       d="m 231.23647,322.37078 c 0,0 6.68008,3.87352 7.30912,10.86932 0.749,8.32982 -4.63714,18.95633 -4.63714,18.95633"
       id="path13-2-1-7-9"
       sodipodi:nodetypes="csc" />
    <path
       style="fill:none;fill-opacity:1;stroke:#000000;stroke-width:1.167;stroke-dasharray:none;stroke-opacity:1"
       d="m 188.22346,361.39633 c 0,0 -1.75151,10.01728 -2.7843,16.15352 -1.03348,6.14037 2.09071,14.52268 2.09071,14.52268"
       id="path13-2-6-3-4"
       sodipodi:nodetypes="csc" />
    <path
       style="fill:none;fill-opacity:1;stroke:#000000;stroke-width:1.167;stroke-dasharray:none;stroke-opacity:1"
       d="m 239.48152,366.10084 c 0,0 -1.46705,11.62656 -0.43426,17.7628 1.03348,6.14037 5.41926,16.13196 5.41926,16.13196"
       id="path13-2-6-3-4-9"
       sodipodi:nodetypes="csc" />
    <path
       style="fill:none;fill-opacity:1;stroke:#000000;stroke-width:1.50107;stroke-dasharray:none;stroke-opacity:1"
       d="m 302.23214,355.14415 c 0,0 1.72962,13.15609 5.19405,20.24246 3.46677,7.09113 12.48863,17.72266 12.48863,17.72266"
       id="path13-2-6-3-4-9-3"
       sodipodi:nodetypes="csc" />
    <path
       style="fill:none;fill-opacity:1;stroke:#000000;stroke-width:1.167;stroke-dasharray:none;stroke-opacity:1"
       d="m 295.54764,259.02165 c 0,0 -2.5522,14.20661 -2.52724,21.60192 0.0477,14.11628 3.94128,25.3925 3.94128,25.3925"
       id="path13-4"
       sodipodi:nodetypes="csc" />
    <path
       style="fill:none;fill-opacity:1;stroke:#000000;stroke-width:1.167;stroke-dasharray:none;stroke-opacity:1"
       d="m 297.56994,309.72879 c 0,0 4.15312,15.27946 4.17808,22.67477 0.0477,14.11628 0.45452,18.68718 0.45452,18.68718"
       id="path13-1"
       sodipodi:nodetypes="csc" />
    <circle
       id="path1"
       style="fill:#0fa6f8;stroke:#00090e;stroke-width:0.264583"
       cx="173.84003"
       cy="388.15958"
       r="0.034894809" />
    <circle
       id="path1-7"
       style="fill:#0fa6f8;stroke:#00090e;stroke-width:0.264583"
       cx="524.61682"
       cy="166.22078"
       r="0.034894809" />
    <path
       id="path7"
       style="fill:none;stroke:#111111;stroke-width:1.167;stroke-dasharray:none;stroke-opacity:1"
       d="m 546.1999,325.26375 c -1.64654,0.13043 -3.15584,-0.0215 -3.31993,0.33684 -7.44823,16.25354 -23.42878,30.91745 -42.76098,37.24609 -81.69805,26.74489 -146.35861,36.68505 -170.88789,39.39082 -52.17373,-5.65155 -91.9601,8.20402 -141.69517,-9.47906 -18.97531,-5.43926 -47.0311,-10.55851 -57.05626,-13.6548 -11.68745,-3.6097 -11.01624,-11.56081 -12.46761,-11.51163 -52.380123,1.77497 -53.139244,-12.9166 -50.964918,-27.09242 0.264135,-1.72206 -7.301859,-0.25747 -11.639282,-2.14973 -6.225135,-2.7158 -12.056438,-22.36844 -1.081277,-31.8565 6.904058,-5.96857 66.940357,-0.28665 75.074767,-3.01487 37.7634,-12.66555 79.24344,-14.8344 85.7691,-18.35225 39.50809,-21.29802 93.80033,-28.1892 79.01791,-26.00488 -19.03626,2.81288 -38.52887,8.8116 -69.4073,10.68522 -8.25075,0.50064 -23.39042,3.24804 -33.89392,5.06855 -19.47115,3.37483 -41.3112,1.72525 -55.47591,1.58381 -26.01248,-0.25975 -68.99716,14.58247 -76.231478,-14.43449 -4.25489,-17.06643 16.196623,-21.98133 38.350046,-23.5193 12.570072,-0.87265 23.791532,-0.87643 35.151572,-1.96434 6.39212,-0.61215 17.14036,-4.86186 27.06898,-7.17708 17.97667,-4.19192 36.66356,-5.88602 39.51496,-6.25993 24.88323,-3.26303 26.4789,-7.49067 50.42039,-12.8511 41.56162,-9.30553 102.61654,-15.42089 98.7826,-29.11078 -4.4374,-15.84465 -5.4975,-7.03524 -25.05812,-23.89209 -22.4771,-19.37019 -69.07389,-13.37719 -82.5137,-41.83791 -22.39307,-47.420535 23.67492,-35.306338 40.33281,-26.511466 25.75418,13.597446 46.58493,17.185246 52.5244,17.461336 29.86409,1.3882 37.95864,28.67631 81.40577,26.93219 42.88329,-1.72149 84.66133,25.4734 111.547,59.80781"
       sodipodi:nodetypes="csssssssssssssssssssssssssssc" />
    <path
       style="fill:none;fill-opacity:1;stroke:#000000;stroke-width:1.167;stroke-dasharray:none;stroke-opacity:1"
       d="m 327.6947,159.49395 c 0,0 -0.10352,-2.87925 5.14489,-7.66291 4.576,-4.17078 7.34884,-5.45327 7.34884,-5.45327"
       id="path12-8"
       sodipodi:nodetypes="csc" />
    <path
       id="rect1"
       style="fill:#ffe200;fill-opacity:1;stroke:#000000;stroke-width:0.3;stroke-dasharray:none;stroke-opacity:1"
       d="m 380.3183,159.95971 c -14.1596,-22.44069 -61.96148,-46.88517 -100.00146,-68.154393 -2.22992,-1.246812 -6.11164,-4.907848 -6.11701,-5.478585 -0.003,-0.295304 1.25698,0.192088 3.60226,1.537211 2.99051,1.715188 4.27216,2.694959 7.27601,4.137662 4.50736,2.164819 10.30605,4.790061 14.75597,7.239225 12.17046,6.69842 67.47789,32.50636 87.01101,61.91113 6.59635,9.93002 22.39611,49.73206 39.60735,73.52867 2.71511,3.75396 22.88769,18.91431 28.60685,23.53778 7.20456,5.82429 9.87946,13.19868 16.61492,14.13816 4.31737,0.60219 16.26016,0.0121 26.20581,-1.83899 10.84087,-2.01775 21.75384,-3.66052 32.53456,-5.84609 13.17554,-2.77229 29.34215,-6.11405 32.89324,-6.66641 11.20909,-1.74353 99.53897,-19.79845 99.53897,-19.79845 l -0.0364,4.31202 c -42.47379,9.04512 -139.59529,24.08481 -143.49144,24.71452 -1.76726,0.28563 -11.4335,1.99097 -21.42325,4.16224 -11.53768,2.5077 -23.53718,5.32323 -24.23685,5.53308 -7.48776,2.24574 -49.49408,12.60801 -54.80383,13.65233 -2.97299,0.58473 -112.02316,27.81748 -120.10415,25.29872 -7.0151,-2.18654 -65.32412,14.57281 -69.2254,15.05946 -6.98809,0.8717 -65.92468,11.00722 -82.79581,11.96194 -15.73379,0.89035 -79.604105,-0.0614 -79.195298,-2.30235 0.619112,-3.39377 71.739588,-2.4455 77.568428,-2.40682 13.27497,0.0881 75.44979,-9.71723 82.55018,-10.74421 2.43277,-0.35186 62.01037,-17.10816 71.0102,-15.31693 8.93123,1.77758 106.81416,-22.23927 106.68167,-23.18015 -0.34437,-2.44561 -56.60412,3.24924 -107.10887,10.82287 -21.08168,3.16138 -67.33478,17.41571 -75.52487,19.97268 -5.54177,1.73016 -96.53034,13.75227 -98.19143,13.41862 -1.1557,-0.23214 -7.72952,-0.80652 -7.71451,-1.01377 0.0212,-0.29329 4.26858,-0.93005 14.44411,-2.34879 19.02378,-2.65244 78.1162,-11.41007 90.4852,-14.87711 9.85754,-2.76307 63.89671,-17.75657 75.28665,-19.9336 36.04114,-6.88877 111.98391,-11.05542 115.75761,-11.45787 5.54516,-0.59138 44.49578,-4.3425 44.16622,-7.07859 -0.51063,-4.23936 -34.27357,-14.67398 -37.80615,-11.9482 -11.12114,8.58118 -55.85596,2.82672 -74.09559,1.94347 -23.37446,-1.1319 -41.95162,1.19545 -48.32785,2.38527 -15.39594,2.87292 -61.79513,20.90462 -64.39786,21.97536 -9.76407,4.01681 -67.31648,16.52121 -101.68811,19.94936 -26.36943,2.63003 -79.41377,1.68127 -79.499752,0.40518 -0.289772,-4.30061 49.894082,-0.43205 76.126182,-4.01594 12.24759,-1.67329 56.68236,-7.45896 96.78536,-18.69589 16.77664,-4.70084 33.16866,-10.83525 45.72355,-15.98411 52.63718,-21.58694 108.28634,-2.19475 135.7397,-8.11993 18.17043,-3.92167 0.22393,-2.43464 -20.42582,-6.05799 -33.07551,-5.80367 -75.98195,-5.10338 -83.95746,-5.03577 -25.67834,0.21767 -59.39361,6.75306 -85.03026,9.6162 -27.0803,3.02436 -52.63033,6.63325 -75.26961,8.54109 -42.454422,3.57769 -72.890811,0.5141 -78.899317,-3.0974 -5.57898,-3.35333 27.049558,4.00611 76.983477,-1.0421 23.18378,-2.34383 48.61678,-4.68039 76.70257,-8.69148 26.38704,-3.76847 61.34359,-9.60862 87.37834,-9.64475 39.60762,-0.055 58.19252,1.20514 86.21159,5.46043 10.37939,1.57633 26.301,2.94038 32.43029,4.56789 3.69299,0.9806 15.55569,2.51807 23.68485,5.5698 6.54054,2.45536 12.39094,8.20286 14.31989,7.93519 8.29423,-1.15096 -14.56372,-17.94412 -34.99989,-31.23477 -23.89833,-15.54226 -53.58706,-31.28426 -59.28753,-32.6085 -16.33036,-3.79359 -118.94045,12.27558 -153.04577,20.27335 -32.62578,7.65082 -62.45302,11.13831 -70.34536,12.58407 -13.42292,2.45887 -81.90996,12.24543 -80.665531,9.10997 2.188164,-5.5133 64.679631,-10.24276 77.415671,-12.0039 3.26282,-0.45118 35.09727,-5.11074 72.16437,-13.97472 43.54676,-10.41348 144.85702,-22.2061 156.05187,-20.22098 10.12498,1.7954 48.56956,27.31688 46.80655,25.85353 -5.5047,-4.56907 -45.04365,-43.21542 -54.03753,-55.85184 -8.11132,-11.39641 -39.82875,-23.8539 -64.13942,-32.97213 -33.11313,-12.41977 -53.63746,-24.39822 -54.97307,-27.58042 -0.64717,-1.54193 -0.92358,-1.67184 -0.45095,-1.75844 3.25565,-0.5965 25.7144,15.9836 54.90396,25.90233 29.63615,10.07048 58.2091,20.19584 67.99743,33.54232 10.40665,14.18956 53.62867,57.53639 53.12911,56.45238 -1.63307,-3.54362 -21.58889,-45.43962 -35.8386,-68.02314 z"
       sodipodi:nodetypes="sssssssssssssccsssssssssssssssssssssssssasssssssssssssssssssssssssssssssssss" />
    <g
       id="g22"
       transform="rotate(-7.4890352,1986.4039,542.95784)">
      <path
         id="rect62-8"
         style="fill:#ebfcff;fill-opacity:0.659375;stroke-width:0.57334"
         d="m 544.2844,44.159443 c 0,0 0.32202,-0.559121 1.23487,-0.870686 1.6778,-0.572653 4.57028,-1.790097 7.57897,-2.526248 2.7551,-0.674106 5.54376,-1.075641 7.67501,-1.134292 4.0629,-0.111809 7.7795,0.01036 9.19449,0.365026 0.81835,0.20512 3.351,0.651098 5.86791,1.418692 2.89461,0.882781 5.7639,1.998604 5.7639,1.998604 0,0 -3.00962,24.047757 -1.78271,31.626559 0.46265,2.857861 5.07156,25.855762 6.62466,30.490582 0.36863,1.10009 -5.94859,3.63465 -9.24032,4.68949 -1.15806,0.3711 -2.65489,0.68471 -3.92045,0.93855 -2.62461,0.52645 -4.75017,0.60253 -5.356,0.65126 -0.85913,0.0691 -3.29189,0.21072 -5.87561,0.0318 -1.21912,-0.0844 -2.45845,-0.36561 -3.69705,-0.54014 -3.66915,-0.51701 -6.90479,-1.52598 -6.90479,-1.52598 0,0 1.97601,-19.54614 1.06845,-29.265538 C 551.36077,68.13826 544.2844,44.159443 544.2844,44.159443 Z"
         sodipodi:nodetypes="cssssscssssssscac" />
    </g>
    <path
       style="fill:none;fill-opacity:1;stroke:#000000;stroke-width:0.553516;stroke-linecap:round;stroke-dasharray:none;stroke-opacity:1"
       d="m 491.65317,236.41414 9.70855,24.71772 c 0,0 2.86715,8.73977 3.67654,13.2519 1.51509,8.4462 2.1691,25.65148 2.1691,25.65148"
       id="path3-0-2"
       sodipodi:nodetypes="ccac" />
    <path
       style="fill:none;fill-opacity:1;stroke:#000000;stroke-width:0.402232;stroke-linecap:round;stroke-dasharray:none;stroke-opacity:1"
       d="m 528.40848,231.08903 c 0.88564,2.35718 -1.26783,17.8187 2.89232,32.99249 1.29121,4.70957 2.94703,8.71719 4.22911,12.26595 2.50096,6.92257 4.49008,11.94735 5.9531,15.96758"
       id="path3-0-7-7"
       sodipodi:nodetypes="cssc" />
    <path
       style="fill:none;fill-opacity:1;stroke:#000000;stroke-width:0.402397;stroke-linecap:round;stroke-dasharray:none;stroke-opacity:1"
       d="m 495.10666,234.45573 c 1.21542,6.9563 7.71886,20.24324 11.33079,34.40547 3.26793,12.81348 3.73597,24.85415 5.19358,31.88818"
       id="path3-0-76-9"
       sodipodi:nodetypes="csc" />
    <path
       style="fill:none;fill-opacity:1;stroke:#000000;stroke-width:0.402232;stroke-linecap:round;stroke-dasharray:none;stroke-opacity:1"
       d="m 498.57882,232.87835 c 1.21541,6.9563 6.83357,21.45702 10.44549,35.61924 3.26793,12.81349 4.92027,25.42155 6.37788,32.45558"
       id="path3-0-76-6-5"
       sodipodi:nodetypes="csc" />
    <path
       style="fill:none;fill-opacity:1;stroke:#000000;stroke-width:0.402397;stroke-linecap:round;stroke-dasharray:none;stroke-opacity:1"
       d="m 501.97117,231.49691 c 0,0 7.85737,27.23702 10.22839,37.33299 l 7.16021,32.03678"
       id="path3-0-76-9-2-4"
       sodipodi:nodetypes="ccc" />
    <path
       style="fill:none;fill-opacity:1;stroke:#000000;stroke-width:0.287308;stroke-linecap:round;stroke-dasharray:none;stroke-opacity:1"
       d="m 523.20401,229.78394 c 0,0 2.64592,22.24443 5.26685,33.10723 2.58013,10.69371 10.24767,31.37033 10.24767,31.37033"
       id="path3-0-76-9-2-1-3"
       sodipodi:nodetypes="cac" />
    <path
       style="fill:none;fill-opacity:1;stroke:#000000;stroke-width:0.402397;stroke-linecap:round;stroke-dasharray:none;stroke-opacity:1"
       d="m 505.24822,230.67697 9.17978,34.67443 8.74863,34.94406"
       id="path3-0-76-9-2-4-4"
       sodipodi:nodetypes="ccc" />
    <path
       style="fill:none;fill-opacity:1;stroke:#000000;stroke-width:0.402397;stroke-linecap:round;stroke-dasharray:none;stroke-opacity:1"
       d="m 508.47694,229.86466 9.74571,35.7885 9.08864,33.83644"
       id="path3-0-76-9-2-4-7"
       sodipodi:nodetypes="ccc" />
    <path
       style="fill:none;fill-opacity:1;stroke:#000000;stroke-width:0.409046;stroke-linecap:round;stroke-dasharray:none;stroke-opacity:1"
       d="m 512.82942,229.41664 8.5618,33.71589 9.49654,35.05067"
       id="path3-0-76-9-2-4-9"
       sodipodi:nodetypes="ccc" />
    <path
       style="fill:none;fill-opacity:1;stroke:#000000;stroke-width:0.402397;stroke-linecap:round;stroke-dasharray:none;stroke-opacity:1"
       d="m 518.91155,229.53555 c 0,0 3.34469,21.93605 5.85431,32.732 2.68576,11.55366 9.82806,34.20105 9.82806,34.20105"
       id="path3-0-76-9-2-4-9-6"
       sodipodi:nodetypes="cac" />
    <path
       style="fill:#ffe200;fill-opacity:1;stroke:#000000;stroke-width:0.3;stroke-linecap:round;stroke-linejoin:round;stroke-dasharray:none;stroke-opacity:1"
       d="m 77.575893,332.8728 c 0,0 -5.834446,0.3704 -12.590076,0.0138 -7.386457,-0.38997 -14.047944,-1.58364 -14.056604,-0.67068 -0.03059,3.22526 17.118303,3.6357 18.784729,3.74744 2.022922,-1.05319 5.652353,-2.58969 7.861951,-3.09056 z"
       id="path5"
       sodipodi:nodetypes="csscc" />
  </g>
</svg>
